<svg width="25" height="25" viewBox="0 0 25 25" fill="none" xmlns="http://www.w3.org/2000/svg">
<g clip-path="url(#clip0_240_1206)">
<mask id="mask0_240_1206" style="mask-type:luminance" maskUnits="userSpaceOnUse" x="0" y="0" width="26" height="25">
<path d="M12.5004 24.8245C19.4042 24.8245 25.0008 19.2673 25.0008 12.4122C25.0008 5.55715 19.4042 0 12.5004 0C5.59663 0 0 5.55715 0 12.4122C0 19.2673 5.59663 24.8245 12.5004 24.8245Z" fill="white"/>
</mask>
<g mask="url(#mask0_240_1206)">
<path d="M12.5004 24.8245C19.4042 24.8245 25.0008 19.2673 25.0008 12.4122C25.0008 5.55715 19.4042 0 12.5004 0C5.59663 0 0 5.55715 0 12.4122C0 19.2673 5.59663 24.8245 12.5004 24.8245Z" fill="#C40028"/>
<path d="M8.05796 22.4776C8.03795 21.4642 8.0688 20.6537 8.10966 20.3772C8.12466 20.2778 8.14051 20.1884 8.15802 20.1015C8.22889 19.7471 8.28726 19.5807 8.35396 19.387C8.414 19.2139 8.89343 17.1458 9.09855 16.2632L9.17359 15.9403C9.3045 15.379 9.44041 14.7994 9.61801 14.2058L9.62468 14.1826L9.61384 14.1611C9.5463 14.0204 9.48794 13.8647 9.43624 13.6875C9.32868 13.3216 9.21528 12.7371 9.28282 12.0267C9.32701 11.5639 9.38204 10.9885 9.79895 10.4073C9.9557 10.1879 10.3734 9.60671 11.1514 9.48003C11.2656 9.45188 11.3798 9.43781 11.4941 9.43781C11.5933 9.43781 11.6925 9.44774 11.7901 9.46844C12.1945 9.53136 12.4271 9.72758 12.5522 9.88158C12.563 9.89482 12.5722 9.9089 12.5814 9.92214L12.5972 9.94533C13.2 10.6739 12.8665 11.8653 12.5438 13.0178L12.5347 13.0517C12.3504 13.7099 12.1736 14.3764 12.0035 15.0213C11.9402 15.3194 11.8693 15.8368 12.0319 16.3377C12.0886 16.5132 12.1528 16.6201 12.1836 16.6697C12.3679 16.957 12.6164 17.0945 12.799 17.193C12.8657 17.2294 13.2025 17.4066 13.6995 17.4579C13.7762 17.4662 14.1714 17.5126 14.64 17.3892C15.5664 17.1458 16.1867 16.4661 16.3093 16.3419C17.3099 15.3252 17.5517 14.0667 17.6776 13.4143C17.781 12.8745 17.9302 11.4083 17.4249 9.77809C17.3074 9.3989 16.8688 8.58587 16.2885 8.02289C15.5597 7.31584 14.7718 7.05504 14.2681 6.89443C13.1217 6.52931 12.1695 6.61045 11.8693 6.64356C11.5258 6.68165 10.7445 6.80087 9.86815 7.2554C8.68748 7.86889 8.03962 8.72579 7.82866 9.0255C7.55518 9.41546 6.81309 10.5762 6.81809 12.035C6.81809 12.035 6.82143 13.0004 7.19997 13.9359C7.20748 13.9541 7.27168 14.1023 7.3067 14.1702C7.31004 14.1768 7.33755 14.2307 7.37007 14.2878C7.44094 14.4128 7.536 14.5536 7.65106 14.7059C7.70609 14.7787 7.74945 14.8334 7.78364 14.8756C7.81866 14.9195 7.83283 14.9766 7.82116 15.0313L7.48263 16.6258C7.46512 16.7086 7.39342 16.7658 7.30837 16.7658C7.28836 16.7658 7.26918 16.7625 7.25 16.7558C6.4879 16.4983 5.76249 15.4212 5.76249 15.4212C5.76249 15.4212 5.06627 14.4468 4.87115 13.2173C4.54013 11.1284 4.99456 9.14472 6.15271 7.62962C7.11242 6.37449 8.26391 5.80405 8.81756 5.53083C9.24947 5.31723 10.8145 4.62012 12.8315 4.62012C13.948 4.62012 15.0211 4.83621 16.0208 5.26259C16.6003 5.50931 18.1378 6.16502 19.2526 7.78693C20.5992 9.74745 20.4433 11.8413 20.3925 12.5293C20.2891 13.921 19.7829 16.4934 17.5567 18.0987C17.0647 18.4531 15.7515 19.2785 14.1906 19.2785C13.9913 19.2785 13.792 19.2653 13.5986 19.2379C13.3576 19.2048 12.7931 19.127 12.1778 18.7627C11.8434 18.5648 11.5441 18.3098 11.2881 18.0043L11.2114 17.9133L11.1789 18.0275C10.8946 19.0202 10.767 19.5666 10.6736 19.9649C10.5602 20.4509 10.4852 20.7721 10.2425 21.3972C10.0591 21.8691 9.84314 22.3493 9.59967 22.8245C9.07187 23.7344 8.36897 24.7792 8.14384 25.0011L8.06046 22.4784L8.05796 22.4776Z" fill="white"/>
</g>
</g>
<defs>
<clipPath id="clip0_240_1206">
<rect width="25" height="25" fill="white"/>
</clipPath>
</defs>
</svg>
