<svg width="25" height="25" viewBox="0 0 25 25" fill="none" xmlns="http://www.w3.org/2000/svg">
<g clip-path="url(#clip0_240_1214)">
<mask id="mask0_240_1214" style="mask-type:luminance" maskUnits="userSpaceOnUse" x="0" y="0" width="26" height="26">
<path d="M12.5004 25.0009C19.4042 25.0009 25.0008 19.4278 25.0008 12.5532C25.0008 5.67849 19.4042 0.105469 12.5004 0.105469C5.59663 0.105469 0 5.67849 0 12.5532C0 19.4278 5.59663 25.0009 12.5004 25.0009Z" fill="white"/>
</mask>
<g mask="url(#mask0_240_1214)">
<path d="M0 24.8946H25V0H0V24.8946Z" fill="white"/>
<path opacity="0.15" d="M12.5004 0.105469C5.5965 0.105469 0 5.67837 0 12.5532C0 19.428 5.5965 25.0009 12.5004 25.0009C19.4043 25.0009 25.0008 19.428 25.0008 12.5532C25.0008 5.67837 19.4035 0.105469 12.5004 0.105469ZM21.2379 21.2538C20.1031 22.3838 18.7815 23.2714 17.3098 23.8908C15.7864 24.5326 14.168 24.858 12.4996 24.858C10.8311 24.858 9.21272 24.5326 7.68936 23.8908C6.21769 23.2714 4.89611 22.3838 3.7613 21.2538C2.62649 20.1237 1.73515 18.8077 1.11313 17.3423C0.468599 15.8253 0.141747 14.2137 0.141747 12.5523C0.141747 10.8909 0.468599 9.27933 1.11313 7.76239C1.73515 6.29693 2.62649 4.98093 3.7613 3.8509C4.89611 2.72088 6.21769 1.8333 7.68936 1.2139C9.21272 0.572091 10.8311 0.246618 12.4996 0.246618C14.168 0.246618 15.7864 0.572091 17.3098 1.2139C18.7815 1.8333 20.1031 2.72088 21.2379 3.8509C22.3727 4.98093 23.264 6.29693 23.886 7.76239C24.5306 9.27933 24.8574 10.8909 24.8574 12.5523C24.8574 14.2137 24.5306 15.8253 23.886 17.3423C23.264 18.8077 22.3727 20.1237 21.2379 21.2538Z" fill="black"/>
</g>
<path d="M3.66124 21.3542C5.92086 23.6043 9.04179 24.9967 12.4896 25H12.5004C15.9524 25 19.0775 23.6068 21.3396 21.3542C23.6017 19.1016 25.0008 15.9897 25.0008 12.5523C25.0008 9.11493 23.6017 6.00301 21.3396 3.75044C19.0766 1.49869 15.9515 0.105469 12.5004 0.105469H12.4896C9.04179 0.10796 5.92086 1.50118 3.66124 3.75127C1.39913 6.00384 0 9.11576 0 12.5532C0 15.9906 1.39913 19.1025 3.66124 21.3551V21.3542Z" fill="url(#paint0_linear_240_1214)"/>
<path d="M18.4212 7.61335C18.337 7.51371 18.2194 7.45975 18.2078 7.45476C18.1536 7.43069 18.0735 7.40495 17.9418 7.40163C17.6358 7.39498 17.3031 7.51787 17.1964 7.56021C17.0271 7.61833 16.767 7.70966 16.4509 7.82507C15.8956 8.02683 15.4862 8.18791 15.332 8.24852C14.8876 8.42288 14.1822 8.69522 13.0607 9.11617L10.2833 10.2802C10.2833 10.2802 8.06369 11.2127 6.26183 11.9707C6.13927 12.0155 5.45388 12.2663 4.99695 12.5336C4.90357 12.5884 4.75932 12.6789 4.6776 12.8508C4.65592 12.8956 4.60006 13.0185 4.62424 13.168C4.67093 13.4528 4.97194 13.5806 4.99695 13.5914C5.76572 13.8256 6.53366 14.0605 7.30243 14.2947C7.4992 14.3528 7.70098 14.3844 7.90193 14.3893C8.38304 14.4026 8.86248 14.2673 9.26937 13.9933L14.143 10.712L14.7967 10.2719C15.016 10.1241 15.2603 10.4206 15.0702 10.6049L14.4673 11.1902L10.887 14.6658C10.5334 15.0096 10.5893 15.5891 11.002 15.8598L14.2213 17.9687L15.4187 18.7533C16.0607 19.1735 16.9254 18.7965 17.0479 18.0426L17.404 15.8407L17.4457 15.5825C17.5532 14.9689 17.6575 14.3462 17.7575 13.7143C17.8934 12.8591 18.5163 8.52086 18.528 8.3C18.5496 7.87987 18.5188 7.72793 18.4212 7.61252V7.61335Z" fill="white"/>
<path d="M15.9999 18.7463C15.8306 18.7463 15.6647 18.6965 15.5204 18.6018L11.1037 15.7083C10.9537 15.6103 10.8578 15.4517 10.8411 15.2749C10.8244 15.0972 10.8878 14.9245 11.0162 14.7999L15.2002 10.739C15.3203 10.6227 15.3562 10.4575 15.2945 10.3064C15.2319 10.1536 15.0818 10.0507 14.9209 10.0507C14.8417 10.0507 14.7633 10.0756 14.6941 10.1221L9.16681 13.8434C8.81245 14.0826 8.39721 14.2088 7.9678 14.2088C7.94779 14.2088 7.92778 14.2088 7.90777 14.2088C7.71933 14.2038 7.53339 14.1739 7.35579 14.1216L5.06199 13.4216C5.0253 13.405 4.83519 13.3112 4.80768 13.141C4.79183 13.0447 4.83269 12.96 4.8452 12.9318C4.9069 12.8023 5.02697 12.7317 5.09117 12.6943C5.50974 12.4494 6.14177 12.2127 6.32604 12.1463C8.13623 11.3841 10.3558 10.4525 10.3558 10.4525L13.1332 9.28847C14.0321 8.95054 14.7975 8.65828 15.4003 8.42248L15.4137 8.4175C15.5821 8.3519 15.9773 8.19664 16.5151 8.00069C16.8303 7.88611 17.0896 7.79561 17.2581 7.73749C17.4048 7.6802 17.6741 7.58887 17.9201 7.58887H17.9393C18.0452 7.59136 18.101 7.61128 18.1344 7.62623C18.1352 7.62623 18.2236 7.66691 18.2811 7.735C18.3378 7.80225 18.3645 7.91102 18.3445 8.29544C18.3345 8.4972 17.7133 12.8297 17.5766 13.6907C17.4782 14.3092 17.3731 14.9369 17.2647 15.5555L16.8662 18.0181C16.7978 18.4416 16.4334 18.7496 15.9999 18.7496V18.7463Z" fill="white"/>
</g>
<defs>
<linearGradient id="paint0_linear_240_1214" x1="12.5004" y1="25" x2="12.5004" y2="0.105469" gradientUnits="userSpaceOnUse">
<stop stop-color="#487DBF"/>
<stop offset="1" stop-color="#62ACF9"/>
</linearGradient>
<clipPath id="clip0_240_1214">
<rect width="25" height="25" fill="white"/>
</clipPath>
</defs>
</svg>
