<svg width="25" height="25" viewBox="0 0 25 25" fill="none" xmlns="http://www.w3.org/2000/svg">
<mask id="mask0_240_1239" style="mask-type:luminance" maskUnits="userSpaceOnUse" x="0" y="0" width="25" height="25">
<path d="M12.4996 24.0418C18.8743 24.0418 24.042 18.8741 24.042 12.4994C24.042 6.12473 18.8743 0.957031 12.4996 0.957031C6.12491 0.957031 0.957214 6.12473 0.957214 12.4994C0.957214 18.8741 6.12491 24.0418 12.4996 24.0418Z" fill="white"/>
</mask>
<g mask="url(#mask0_240_1239)">
<path d="M25 0H0V25H25V0Z" fill="black"/>
<path d="M13.7853 11.4805L18.0722 6.58887H16.4901L13.0759 10.5033L10.0418 6.58887H5.99194L11.0321 13.1395L6.45441 18.4098H7.98646L11.7424 14.1168L15.0781 18.4098H19.0279L13.7861 11.4805H13.7853ZM15.4836 17.1078L8.41738 7.84083H9.59008L16.6563 17.1078H15.4836Z" fill="white"/>
</g>
</svg>
