<svg width="25" height="25" viewBox="0 0 25 25" fill="none" xmlns="http://www.w3.org/2000/svg">
<g clip-path="url(#clip0_240_1248)">
<mask id="mask0_240_1248" style="mask-type:luminance" maskUnits="userSpaceOnUse" x="0" y="0" width="26" height="26">
<path d="M12.5004 25.0008C19.4042 25.0008 25.0008 19.4042 25.0008 12.5004C25.0008 5.59663 19.4042 0 12.5004 0C5.59663 0 0 5.59663 0 12.5004C0 19.4042 5.59663 25.0008 12.5004 25.0008Z" fill="white"/>
</mask>
<g mask="url(#mask0_240_1248)">
<path d="M0 25H25V0H0V25Z" fill="#DA0000"/>
</g>
<path d="M17.9685 18.0338C14.3189 18.2298 10.6819 18.2298 7.0323 18.0338C5.54146 18.0038 4.45167 16.9432 4.40248 15.4432C4.21571 13.4796 4.21237 11.516 4.39414 9.55237C4.39664 9.52069 4.39998 9.48984 4.40248 9.45815C4.45167 7.95814 5.54146 6.89754 7.0323 6.86668C10.6819 6.67074 14.3189 6.67074 17.9685 6.86668C19.4593 6.8967 20.5491 7.9573 20.5983 9.45815C20.6008 9.48984 20.6042 9.52069 20.6067 9.55237C20.7876 11.516 20.7843 13.4796 20.5983 15.4432C20.5491 16.9432 19.4593 18.0038 17.9685 18.0338Z" fill="white"/>
<path d="M12.5004 18.0388C10.6902 18.0388 8.85164 17.9896 7.03728 17.8921C5.58729 17.8629 4.5442 16.8348 4.49668 15.3923C4.31074 13.4379 4.30824 11.4618 4.4875 9.51316L4.49584 9.41894C4.54337 7.97062 5.58646 6.94337 7.03311 6.91335C8.85081 6.8158 10.6894 6.7666 12.4995 6.7666C14.3097 6.7666 16.1483 6.8158 17.9626 6.91335C19.4118 6.94253 20.4557 7.97062 20.5032 9.4131L20.5124 9.51316C20.6925 11.4601 20.6892 13.4362 20.5041 15.3865C20.4566 16.8348 19.4126 17.8629 17.9668 17.8921C16.1491 17.9896 14.3106 18.0388 12.5004 18.0388Z" fill="white"/>
<path d="M10.937 10.1357L15.0518 12.4504L10.937 14.765V10.1357Z" fill="#DA0000"/>
<path d="M10.9395 10.1025L15.1978 12.4981L10.9395 14.8928V10.1025Z" fill="#DA0000"/>
</g>
<defs>
<clipPath id="clip0_240_1248">
<rect width="25" height="25" fill="white"/>
</clipPath>
</defs>
</svg>
