<svg width="500" height="500" viewBox="0 0 500 500" fill="none" xmlns="http://www.w3.org/2000/svg">
<g clip-path="url(#clip0_372_653)">
<path d="M390 0H110C49.2487 0 0 49.2487 0 110V390C0 450.751 49.2487 500 110 500H390C450.751 500 500 450.751 500 390V110C500 49.2487 450.751 0 390 0Z" fill="url(#paint0_linear_372_653)"/>
<path d="M68.341 323.88C71.5677 323.88 74.1344 322.707 76.041 320.36C78.0944 318.013 79.781 314.86 81.101 310.9C82.421 306.94 83.4477 302.393 84.181 297.26C85.061 291.98 85.8677 286.407 86.601 280.54C86.8943 277.9 87.1877 274.82 87.481 271.3C87.7744 267.633 88.0677 263.013 88.361 257.44C88.801 251.72 89.241 244.68 89.681 236.32C90.2677 227.813 90.9277 217.4 91.661 205.08C91.8077 203.027 92.0277 201.633 92.321 200.9C92.6144 200.167 93.5677 199.8 95.181 199.8H107.281C112.268 199.8 116.154 200.24 118.941 201.12C121.874 202 124.074 203.1 125.541 204.42C127.008 205.74 127.888 207.207 128.181 208.82C128.474 210.287 128.621 211.753 128.621 213.22C128.621 214.687 128.548 218.06 128.401 223.34C128.254 228.62 128.034 234.78 127.741 241.82C127.448 248.713 127.008 255.973 126.421 263.6C125.981 271.227 125.468 278.12 124.881 284.28C124.001 292.64 122.608 301.22 120.701 310.02C118.941 318.673 116.008 326.593 111.901 333.78C107.794 340.967 102.294 346.833 95.401 351.38C88.6544 355.927 79.8544 358.2 69.001 358.2C62.9877 358.2 57.561 357.467 52.721 356C48.0277 354.533 43.9943 352.553 40.621 350.06C37.3943 347.42 34.901 344.413 33.141 341.04C31.381 337.52 30.501 333.853 30.501 330.04C30.501 326.52 31.161 323.367 32.481 320.58C33.9477 317.647 35.8543 315.227 38.201 313.32C40.5477 311.413 43.1877 309.947 46.121 308.92C49.201 307.893 52.3543 307.38 55.581 307.38C56.461 307.38 57.0477 308.26 57.341 310.02C57.781 311.633 58.2944 313.54 58.881 315.74C59.6144 317.793 60.641 319.7 61.961 321.46C63.281 323.073 65.4077 323.88 68.341 323.88ZM194.54 358.2C184.42 358.2 175.987 356.807 169.24 354.02C162.64 351.087 157.36 347.127 153.4 342.14C149.44 337.153 146.654 331.36 145.04 324.76C143.427 318.013 142.62 310.827 142.62 303.2C142.62 294.4 143.647 285.82 145.7 277.46C147.9 268.953 151.567 261.4 156.7 254.8C161.834 248.2 168.58 242.92 176.94 238.96C185.447 234.853 196.007 232.8 208.62 232.8C227.1 232.8 240.3 237.347 248.22 246.44C256.287 255.387 260.32 268 260.32 284.28C260.32 288.827 259.954 293.887 259.22 299.46C258.634 304.887 257.387 310.313 255.48 315.74C253.72 321.167 251.227 326.447 248 331.58C244.92 336.713 240.96 341.26 236.12 345.22C231.28 349.18 225.414 352.333 218.52 354.68C211.774 357.027 203.78 358.2 194.54 358.2ZM204.88 262.06C199.307 262.06 194.834 263.527 191.46 266.46C188.234 269.247 185.74 272.693 183.98 276.8C182.367 280.76 181.267 285.013 180.68 289.56C180.24 293.96 180.02 297.7 180.02 300.78C180.02 310.46 181.56 317.573 184.64 322.12C187.72 326.667 192.12 328.94 197.84 328.94C202.974 328.94 207.154 327.327 210.38 324.1C213.754 320.873 216.32 316.987 218.08 312.44C219.987 307.893 221.234 303.127 221.82 298.14C222.554 293.153 222.92 288.973 222.92 285.6C222.92 278.267 221.527 272.547 218.74 268.44C216.1 264.187 211.48 262.06 204.88 262.06ZM406.735 323.22C408.202 315.447 409.522 308.7 410.695 302.98C411.869 297.113 412.895 291.687 413.775 286.7C414.655 281.713 415.462 276.8 416.195 271.96C417.075 266.973 417.955 261.473 418.835 255.46C419.862 249.3 420.962 242.333 422.135 234.56C423.455 226.64 424.995 217.18 426.755 206.18C427.195 203.393 427.929 201.633 428.955 200.9C429.982 200.02 432.549 199.58 436.655 199.58C438.269 199.58 440.689 199.727 443.915 200.02C447.142 200.167 450.369 200.827 453.595 202C456.822 203.027 459.609 204.713 461.955 207.06C464.449 209.26 465.695 212.413 465.695 216.52C465.695 218.867 465.255 222.533 464.375 227.52C463.495 232.36 462.249 238.007 460.635 244.46C459.169 250.767 457.409 257.66 455.355 265.14C453.449 272.62 451.469 280.173 449.415 287.8C447.362 295.427 445.235 302.833 443.035 310.02C440.982 317.207 439.002 323.733 437.095 329.6C435.335 335.32 433.722 340.16 432.255 344.12C430.789 348.08 429.762 350.647 429.175 351.82C428.295 353.433 427.049 354.533 425.435 355.12C423.822 355.707 422.209 356 420.595 356H399.695C395.882 356 392.655 355.267 390.015 353.8C387.522 352.333 385.395 350.427 383.635 348.08C382.022 345.733 380.702 343.093 379.675 340.16C378.795 337.227 378.209 334.22 377.915 331.14L366.915 232.36C366.035 238.813 365.009 246.073 363.835 254.14C362.809 262.207 361.635 270.42 360.315 278.78C359.142 287.14 357.969 295.353 356.795 303.42C355.622 311.487 354.449 318.893 353.275 325.64C352.102 332.24 351.002 337.887 349.975 342.58C348.949 347.273 348.069 350.353 347.335 351.82C346.602 353.433 345.429 354.533 343.815 355.12C342.202 355.707 340.515 356 338.755 356H317.855C314.189 356 311.109 355.34 308.615 354.02C306.269 352.553 304.289 350.647 302.675 348.3C301.062 345.953 299.742 343.313 298.715 340.38C297.689 337.3 296.809 334.22 296.075 331.14C290.062 307.233 285.149 287.58 281.335 272.18C277.669 256.78 274.735 244.46 272.535 235.22C270.335 225.833 268.795 219.013 267.915 214.76C267.182 210.36 266.815 207.207 266.815 205.3C266.815 202.807 267.549 201.193 269.015 200.46C270.629 199.727 273.929 199.36 278.915 199.36C285.075 199.36 290.209 199.8 294.315 200.68C298.569 201.56 302.015 202.953 304.655 204.86C307.295 206.62 309.275 209.04 310.595 212.12C312.062 215.053 313.015 218.647 313.455 222.9C313.455 223.487 313.529 224.367 313.675 225.54C313.822 226.567 313.969 228.327 314.115 230.82C314.409 233.313 314.775 236.76 315.215 241.16C315.802 245.413 316.462 251.133 317.195 258.32C318.075 265.507 319.102 274.453 320.275 285.16C321.595 295.72 323.135 308.407 324.895 323.22C326.509 314.273 327.755 307.087 328.635 301.66C329.662 296.087 330.542 291.247 331.275 287.14C332.009 282.887 332.669 278.853 333.255 275.04C333.842 271.08 334.502 266.24 335.235 260.52C336.115 254.653 337.069 247.32 338.095 238.52C339.269 229.72 340.735 218.28 342.495 204.2C342.642 203.173 343.229 202.367 344.255 201.78C345.429 201.193 346.822 200.753 348.435 200.46C350.049 200.167 351.809 200.02 353.715 200.02C355.769 199.873 357.675 199.8 359.435 199.8C365.302 199.8 370.289 200.167 374.395 200.9C378.502 201.487 381.875 202.587 384.515 204.2C387.302 205.813 389.502 208.013 391.115 210.8C392.729 213.44 394.049 216.74 395.075 220.7C395.515 222.607 396.029 225.247 396.615 228.62C397.202 231.847 397.862 237.053 398.595 244.24C399.475 251.427 400.502 261.327 401.675 273.94C402.995 286.407 404.682 302.833 406.735 323.22Z" fill="white"/>
<path d="M404 57L414.75 89.25L447 100L414.75 110.75L404 143L393.25 110.75L361 100L393.25 89.25L404 57Z" fill="white" fill-opacity="0.9"/>
</g>
<defs>
<linearGradient id="paint0_linear_372_653" x1="0" y1="0" x2="500" y2="500" gradientUnits="userSpaceOnUse">
<stop stop-color="#6D28D9"/>
<stop offset="0.5" stop-color="#2563EB"/>
<stop offset="1" stop-color="#06B6D4"/>
</linearGradient>
<clipPath id="clip0_372_653">
<rect width="500" height="500" fill="white"/>
</clipPath>
</defs>
</svg>
